# xmcd
#
# Track frame offsets:
#	150
#	19437
#	44565
#	66647
#	93742
#	120645
#	142102
#	157675
#	179782
#	203290
#	227075
#	262475
#
# Disc length: 3909 seconds
#
# Revision: 2
# Processed by: cddbd v1.4PL0 Copyright (c) Steve Scherf et al.
# Submitted via: EasyCDDAExtractor 5.0.7
#
DISCID=ba0f430c
DTITLE=The Philip Walker Big Band - Live At Biscuits and Blues
DYEAR=2002
DGENRE=Blues
TTITLE0=Hello My Darling
TTITLE1=Don't Be Afraid Of The Dark
TTITLE2=Think
TTITLE3=Crying For My Baby
TTITLE4=Respirator
TTITLE5=Mary Ann
TTITLE6=Reconsider Baby
TTITLE7=Breaking Up Somebody's Home
TTITLE8=90 Proof
TTITLE9=I've Got A Problem
TTITLE10=Along About Midnight
TTITLE11=Linda Lu
EXTD=
EXTT0=
EXTT1=
EXTT2=
EXTT3=
EXTT4=
EXTT5=
EXTT6=
EXTT7=
EXTT8=
EXTT9=
EXTT10=
EXTT11=
PLAYORDER=
